<svg class="" width="512" height="512" enable-background="new 0 0 512 512" fill-rule="evenodd" version="1.1" viewBox="0 0 96 96" xmlns="http://www.w3.org/2000/svg">
  <path d="M4.739 30.038a9.352 9.352 0 0 1 0-13.225L16.813 4.739a9.35 9.35 0 0 1 13.225 0l61.223 61.223a9.352 9.352 0 0 1 0 13.225L79.187 91.261a9.35 9.35 0 0 1-13.225 0L4.739 30.038z" fill="#cf9c1f" />
  <path class="" d="M91.261 30.038a9.352 9.352 0 0 0 0-13.225L79.187 4.739a9.35 9.35 0 0 0-13.225 0L4.739 65.962a9.352 9.352 0 0 0 0 13.225l12.074 12.074a9.35 9.35 0 0 0 13.225 0l61.223-61.223z" fill="#f3b725" />
  <path d="m66.777 43.067a6.233 6.233 0 0 0 0-8.816l-5.028-5.028a6.233 6.233 0 0 0-8.816 0l-23.71 23.71a6.233 6.233 0 0 0 0 8.816l5.028 5.028a6.233 6.233 0 0 0 8.816 0l23.71-23.71z" fill="#f6c95c" />
  <g>
    <path d="M76.161 52.984 90.2 67.023a7.848 7.848 0 0 1 0 11.103L78.126 90.2a7.847 7.847 0 0 1-11.103 0L49.061 72.238a1.501 1.501 0 0 0-2.122 2.121l17.963 17.963a10.85 10.85 0 0 0 15.346 0l12.074-12.074a10.85 10.85 0 0 0 0-15.346l-14.04-14.04a1.501 1.501 0 0 0-2.121 2.122zm-56.4-10.046L5.8 28.977a7.848 7.848 0 0 1 0-11.103L17.874 5.8a7.847 7.847 0 0 1 11.103 0l17.962 17.962a1.501 1.501 0 0 0 2.122-2.121L31.098 3.678a10.85 10.85 0 0 0-15.346 0L3.678 15.752a10.85 10.85 0 0 0 0 15.346l13.961 13.961a1.5 1.5 0 0 0 2.122-2.121z" />
    <path d="M92.322 31.098a10.85 10.85 0 0 0 0-15.346L80.248 3.678a10.85 10.85 0 0 0-15.346 0L3.678 64.902a10.85 10.85 0 0 0 0 15.346l12.074 12.074a10.85 10.85 0 0 0 15.346 0zM90.2 28.977 28.977 90.2a7.848 7.848 0 0 1-11.103 0L5.8 78.126a7.847 7.847 0 0 1 0-11.103L67.023 5.8a7.848 7.848 0 0 1 11.103 0L90.2 17.874a7.847 7.847 0 0 1 0 11.103z" />
    <path d="M47.488 32.546 28.162 51.872a7.735 7.735 0 0 0 0 10.938l5.028 5.028a7.735 7.735 0 0 0 10.938 0l23.71-23.71a7.735 7.735 0 0 0 0-10.938l-5.028-5.028a7.735 7.735 0 0 0-10.938 0 1.501 1.501 0 0 0 2.121 2.122 4.735 4.735 0 0 1 6.696 0l5.027 5.027a4.735 4.735 0 0 1 0 6.696L42.007 65.716a4.735 4.735 0 0 1-6.696 0l-5.027-5.027a4.735 4.735 0 0 1 0-6.696L49.61 34.667a1.501 1.501 0 0 0-2.122-2.121z"/>
  </g>
</svg>
